<?xml version="1.0" encoding="utf-8"?>
<!-- Generator: Adobe Illustrator 23.0.5, SVG Export Plug-In . SVG Version: 6.00 Build 0)  -->
<svg version="1.1" id="Design" xmlns="http://www.w3.org/2000/svg" xmlns:xlink="http://www.w3.org/1999/xlink" x="0px" y="0px"
	 viewBox="0 0 288 288" style="enable-background:new 0 0 288 288;" xml:space="preserve">
<style type="text/css">
	.st0{fill:#62F2FF;}
	.st1{fill:none;}
	.st2{fill:#A3BEC0;}
	.st3{fill:#A3BEBF;}
</style>
<g>
	<g>
		<rect x="164.4" y="84.4" class="st0" width="2.5" height="2.5"/>
		<rect x="131.4" y="202.4" class="st0" width="2.5" height="2.5"/>
		<rect x="164.3" y="82.9" class="st0" width="2.5" height="0.7"/>
		<rect x="139.1" y="196" class="st0" width="2.5" height="2.5"/>
		<rect x="135.3" y="199.2" class="st0" width="2.5" height="2.5"/>
		<rect x="127.6" y="205.5" class="st0" width="2.5" height="2.5"/>
		<rect x="161.8" y="145.2" class="st0" width="2.5" height="2.5"/>
		<rect x="165.1" y="103.9" class="st0" width="2.5" height="2.5"/>
		<rect x="164.5" y="87.7" class="st0" width="2.5" height="2.5"/>
		<rect x="165.1" y="107.1" class="st0" width="2.5" height="2.5"/>
		<rect x="165" y="100.7" class="st0" width="2.5" height="2.5"/>
		<rect x="164.7" y="90.9" class="st0" width="2.5" height="2.5"/>
		<rect x="142.7" y="192.9" class="st0" width="2.5" height="2.5"/>
		<rect x="164.9" y="97.4" class="st0" width="2.5" height="2.5"/>
		<rect x="158.6" y="170.6" class="st0" width="2.5" height="2.5"/>
		<rect x="160.9" y="161.1" class="st0" width="2.5" height="2.5"/>
		<rect x="161.3" y="157.9" class="st0" width="2.5" height="2.5"/>
		<rect x="160.3" y="164.3" class="st0" width="2.5" height="2.5"/>
		<rect x="159.6" y="167.5" class="st0" width="2.5" height="2.5"/>
		<rect x="161.8" y="148.4" class="st0" width="2.5" height="2.5"/>
		<rect x="161.7" y="151.6" class="st0" width="2.5" height="2.5"/>
		<rect x="161.5" y="154.8" class="st0" width="2.5" height="2.5"/>
		<rect x="155.7" y="177" class="st0" width="2.5" height="2.5"/>
		<rect x="151.6" y="183.3" class="st0" width="2.5" height="2.5"/>
		<rect x="165.2" y="110.3" class="st0" width="2.5" height="2.5"/>
		<rect x="149" y="186.5" class="st0" width="2.5" height="2.5"/>
		<rect x="153.8" y="180.1" class="st0" width="2.5" height="2.5"/>
		<rect x="157.3" y="173.8" class="st0" width="2.5" height="2.5"/>
		<rect x="146" y="189.7" class="st0" width="2.5" height="2.5"/>
		<rect x="164.8" y="94.2" class="st0" width="2.5" height="2.5"/>
		<rect x="161.5" y="173.8" class="st0" width="2.5" height="2.5"/>
		<rect x="160.2" y="177" class="st0" width="2.5" height="2.5"/>
		<rect x="165.2" y="113.5" class="st0" width="2.5" height="2.5"/>
		<rect x="156.7" y="183.3" class="st0" width="2.5" height="2.5"/>
		<rect x="162.5" y="170.6" class="st0" width="2.5" height="2.5"/>
		<rect x="164" y="164.3" class="st0" width="2.5" height="2.5"/>
		<rect x="163.4" y="167.5" class="st0" width="2.5" height="2.5"/>
		<rect x="152.1" y="189.7" class="st0" width="2.5" height="2.5"/>
		<rect x="146.4" y="196" class="st0" width="2.5" height="2.5"/>
		<rect x="143.4" y="199.2" class="st0" width="2.5" height="2.5"/>
		<rect x="154.5" y="186.5" class="st0" width="2.5" height="2.5"/>
		<rect x="137.2" y="205.5" class="st0" width="2.5" height="2.5"/>
		<rect x="164.4" y="161.1" class="st0" width="2.5" height="2.5"/>
		<rect x="149.4" y="192.9" class="st0" width="2.5" height="2.5"/>
		<rect x="158.6" y="180.1" class="st0" width="2.5" height="2.5"/>
		<rect x="165.2" y="126.2" class="st0" width="2.5" height="2.5"/>
		<rect x="165.2" y="135.7" class="st0" width="2.5" height="2.5"/>
		<rect x="165.2" y="132.5" class="st0" width="2.5" height="2.5"/>
		<rect x="165.2" y="129.4" class="st0" width="2.5" height="2.5"/>
		<rect x="165.2" y="116.7" class="st0" width="2.5" height="2.5"/>
		<rect x="165.2" y="119.8" class="st0" width="2.5" height="2.5"/>
		<rect x="165.2" y="123" class="st0" width="2.5" height="2.5"/>
		<rect x="164.8" y="157.9" class="st0" width="2.5" height="2.5"/>
		<rect x="165.1" y="151.6" class="st0" width="2.5" height="2.5"/>
		<rect x="165.2" y="148.4" class="st0" width="2.5" height="2.5"/>
		<rect x="165" y="154.8" class="st0" width="2.5" height="2.5"/>
		<rect x="165.2" y="145.2" class="st0" width="2.5" height="2.5"/>
		<rect x="165.2" y="142.1" class="st0" width="2.5" height="2.5"/>
		<rect x="165.2" y="138.9" class="st0" width="2.5" height="2.5"/>
		<rect x="161.9" y="142.1" class="st0" width="2.5" height="2.5"/>
		<rect x="158.3" y="151.6" class="st0" width="2.5" height="2.5"/>
		<rect x="158.5" y="145.2" class="st0" width="2.5" height="2.5"/>
		<rect x="158.4" y="148.4" class="st0" width="2.5" height="2.5"/>
		<rect x="158.5" y="142.1" class="st0" width="2.5" height="2.5"/>
		<rect x="158.5" y="132.5" class="st0" width="2.5" height="2.5"/>
		<rect x="158.5" y="138.9" class="st0" width="2.5" height="2.5"/>
		<rect x="158.5" y="135.7" class="st0" width="2.5" height="2.5"/>
		<rect x="155.7" y="167.5" class="st0" width="2.5" height="2.5"/>
		<rect x="158.5" y="129.4" class="st0" width="2.5" height="2.5"/>
		<rect x="156.6" y="164.3" class="st0" width="2.5" height="2.5"/>
		<rect x="158.1" y="154.8" class="st0" width="2.5" height="2.5"/>
		<rect x="154.6" y="170.6" class="st0" width="2.5" height="2.5"/>
		<rect x="157.8" y="157.9" class="st0" width="2.5" height="2.5"/>
		<rect x="153.1" y="173.8" class="st0" width="2.5" height="2.5"/>
		<rect x="157.3" y="161.1" class="st0" width="2.5" height="2.5"/>
		<rect x="157.2" y="93.6" class="st0" width="2.5" height="2.5"/>
		<rect x="158" y="103.6" class="st0" width="2.5" height="2.5"/>
		<rect x="157.7" y="100.3" class="st0" width="2.5" height="2.5"/>
		<rect x="153.7" y="100" class="st0" width="2.5" height="2.5"/>
		<rect x="140.3" y="202.4" class="st0" width="2.5" height="2.5"/>
		<rect x="156.2" y="83.4" class="st0" width="2.5" height="2.5"/>
		<rect x="156.9" y="90.2" class="st0" width="2.5" height="2.5"/>
		<rect x="156.5" y="86.8" class="st0" width="2.5" height="2.5"/>
		<rect x="157.5" y="97" class="st0" width="2.5" height="2.5"/>
		<rect x="158.4" y="116.6" class="st0" width="2.5" height="2.5"/>
		<rect x="158.5" y="119.8" class="st0" width="2.5" height="2.5"/>
		<rect x="158.1" y="106.9" class="st0" width="2.5" height="2.5"/>
		<rect x="158.5" y="123" class="st0" width="2.5" height="2.5"/>
		<rect x="158.3" y="110.2" class="st1" width="2.5" height="2.5"/>
		<rect x="158.4" y="113.4" class="st0" width="2.5" height="2.5"/>
		<rect x="158.5" y="126.2" class="st0" width="2.5" height="2.5"/>
		<rect x="161.8" y="113.5" class="st0" width="2.5" height="2.5"/>
		<rect x="161.8" y="116.6" class="st0" width="2.5" height="2.5"/>
		<rect x="161.8" y="110.2" class="st0" width="2.5" height="2.5"/>
		<rect x="158.1" y="110.2" class="st0" width="2.5" height="2.5"/>
		<rect x="161.7" y="107" class="st0" width="2.5" height="2.5"/>
		<rect x="161.9" y="119.8" class="st0" width="2.5" height="2.5"/>
		<rect x="161.4" y="100.5" class="st0" width="2.5" height="2.5"/>
		<rect x="161.6" y="103.8" class="st0" width="2.5" height="2.5"/>
		<rect x="161.3" y="97.2" class="st0" width="2.5" height="2.5"/>
		<rect x="161.9" y="123" class="st0" width="2.5" height="2.5"/>
		<rect x="161.9" y="138.9" class="st0" width="2.5" height="2.5"/>
		<rect x="161.9" y="132.5" class="st0" width="2.5" height="2.5"/>
		<rect x="161.9" y="135.7" class="st0" width="2.5" height="2.5"/>
		<rect x="161.9" y="126.2" class="st0" width="2.5" height="2.5"/>
		<rect x="161.9" y="129.4" class="st0" width="2.5" height="2.5"/>
		<rect x="122" y="202.4" class="st0" width="2.5" height="2.5"/>
		<rect x="126.8" y="199.2" class="st0" width="2.5" height="2.5"/>
		<rect x="139.8" y="189.7" class="st0" width="2.5" height="2.5"/>
		<rect x="131.4" y="196" class="st0" width="2.5" height="2.5"/>
		<rect x="135.8" y="192.9" class="st0" width="2.5" height="2.5"/>
		<rect x="149" y="180.1" class="st0" width="2.5" height="2.5"/>
		<rect x="146.4" y="183.3" class="st0" width="2.5" height="2.5"/>
		<rect x="143.3" y="186.5" class="st0" width="2.5" height="2.5"/>
		<rect x="160.2" y="82.5" class="st0" width="2.5" height="0.7"/>
		<rect x="160.4" y="84" class="st0" width="2.5" height="2.5"/>
		<rect x="160.6" y="87.3" class="st0" width="2.5" height="2.5"/>
		<rect x="160.9" y="90.6" class="st0" width="2.5" height="2.5"/>
		<rect x="161.1" y="93.9" class="st0" width="2.5" height="2.5"/>
		<rect x="151.3" y="177" class="st0" width="2.5" height="2.5"/>
		<rect x="117.2" y="205.5" class="st0" width="2.5" height="2.5"/>
		<rect x="175.3" y="113.5" class="st0" width="2.5" height="2.5"/>
		<rect x="175.3" y="94.4" class="st0" width="2.5" height="2.5"/>
		<rect x="175.2" y="88.1" class="st0" width="2.5" height="2.5"/>
		<rect x="175.2" y="91.2" class="st0" width="2.5" height="2.5"/>
		<rect x="175.2" y="84.9" class="st0" width="2.5" height="2.5"/>
		<rect x="159.9" y="196" class="st0" width="2.5" height="2.5"/>
		<rect x="157.9" y="199.2" class="st0" width="2.5" height="2.5"/>
		<rect x="154.2" y="205.5" class="st0" width="2.5" height="2.5"/>
		<rect x="156" y="202.4" class="st0" width="2.5" height="2.5"/>
		<rect x="175.3" y="110.3" class="st0" width="2.5" height="2.5"/>
		<rect x="175.3" y="97.6" class="st0" width="2.5" height="2.5"/>
		<rect x="155.9" y="81.8" class="st0" width="2.5" height="0.7"/>
		<rect x="175.3" y="107.1" class="st0" width="2.5" height="2.5"/>
		<rect x="175.3" y="104" class="st0" width="2.5" height="2.5"/>
		<rect x="175.3" y="116.7" class="st0" width="2.5" height="2.5"/>
		<rect x="175.3" y="100.8" class="st0" width="2.5" height="2.5"/>
		<rect x="171.5" y="161.1" class="st0" width="2.5" height="2.5"/>
		<rect x="171.2" y="164.3" class="st0" width="2.5" height="2.5"/>
		<rect x="170.8" y="167.5" class="st0" width="2.5" height="2.5"/>
		<rect x="171.7" y="157.9" class="st0" width="2.5" height="2.5"/>
		<rect x="170.3" y="170.6" class="st0" width="2.5" height="2.5"/>
		<rect x="171.9" y="151.6" class="st0" width="2.5" height="2.5"/>
		<rect x="171.8" y="154.8" class="st0" width="2.5" height="2.5"/>
		<rect x="166.5" y="183.3" class="st0" width="2.5" height="2.5"/>
		<rect x="169.6" y="173.8" class="st0" width="2.5" height="2.5"/>
		<rect x="165.1" y="186.5" class="st0" width="2.5" height="2.5"/>
		<rect x="163.5" y="189.7" class="st0" width="2.5" height="2.5"/>
		<rect x="161.7" y="192.9" class="st0" width="2.5" height="2.5"/>
		<rect x="167.7" y="180.1" class="st0" width="2.5" height="2.5"/>
		<rect x="168.8" y="177" class="st0" width="2.5" height="2.5"/>
		<rect x="172.1" y="180.1" class="st0" width="2.5" height="2.5"/>
		<rect x="171.1" y="183.3" class="st0" width="2.5" height="2.5"/>
		<rect x="171.9" y="148.4" class="st0" width="2.5" height="2.5"/>
		<rect x="168.7" y="189.7" class="st0" width="2.5" height="2.5"/>
		<rect x="170" y="186.5" class="st0" width="2.5" height="2.5"/>
		<rect x="172.9" y="177" class="st0" width="2.5" height="2.5"/>
		<rect x="174.1" y="170.6" class="st0" width="2.5" height="2.5"/>
		<rect x="175.3" y="119.8" class="st0" width="2.5" height="2.5"/>
		<rect x="174.5" y="167.5" class="st0" width="2.5" height="2.5"/>
		<rect x="161.5" y="205.5" class="st0" width="2.5" height="2.5"/>
		<rect x="162.9" y="202.4" class="st0" width="2.5" height="2.5"/>
		<rect x="167.4" y="192.9" class="st0" width="2.5" height="2.5"/>
		<rect x="208.8" y="83.5" class="st0" width="1.4" height="0.7"/>
		<rect x="165.9" y="196" class="st0" width="2.5" height="2.5"/>
		<rect x="164.4" y="199.2" class="st0" width="2.5" height="2.5"/>
		<rect x="173.6" y="173.8" class="st0" width="2.5" height="2.5"/>
		<rect x="175.3" y="142.1" class="st0" width="2.5" height="2.5"/>
		<rect x="175.3" y="135.7" class="st0" width="2.5" height="2.5"/>
		<rect x="175.3" y="138.9" class="st0" width="2.5" height="2.5"/>
		<rect x="175.3" y="132.5" class="st0" width="2.5" height="2.5"/>
		<rect x="175.3" y="129.4" class="st0" width="2.5" height="2.5"/>
		<rect x="175.3" y="123" class="st0" width="2.5" height="2.5"/>
		<rect x="175.3" y="126.2" class="st0" width="2.5" height="2.5"/>
		<rect x="175" y="161.1" class="st0" width="2.5" height="2.5"/>
		<rect x="175.1" y="157.9" class="st0" width="2.5" height="2.5"/>
		<rect x="174.8" y="164.3" class="st0" width="2.5" height="2.5"/>
		<rect x="175.3" y="145.2" class="st0" width="2.5" height="2.5"/>
		<rect x="175.2" y="154.8" class="st0" width="2.5" height="2.5"/>
		<rect x="175.3" y="151.6" class="st0" width="2.5" height="2.5"/>
		<rect x="175.3" y="148.4" class="st0" width="2.5" height="2.5"/>
		<rect x="168.5" y="107.1" class="st0" width="2.5" height="2.5"/>
		<rect x="168.6" y="142.1" class="st0" width="2.5" height="2.5"/>
		<rect x="168.6" y="145.2" class="st0" width="2.5" height="2.5"/>
		<rect x="168.5" y="148.4" class="st0" width="2.5" height="2.5"/>
		<rect x="168.6" y="135.7" class="st0" width="2.5" height="2.5"/>
		<rect x="168.6" y="132.5" class="st0" width="2.5" height="2.5"/>
		<rect x="168.6" y="138.9" class="st0" width="2.5" height="2.5"/>
		<rect x="168.6" y="129.4" class="st0" width="2.5" height="2.5"/>
		<rect x="168.5" y="151.6" class="st0" width="2.5" height="2.5"/>
		<rect x="165.6" y="173.8" class="st0" width="2.5" height="2.5"/>
		<rect x="167.1" y="167.5" class="st0" width="2.5" height="2.5"/>
		<rect x="166.4" y="170.6" class="st0" width="2.5" height="2.5"/>
		<rect x="167.6" y="164.3" class="st0" width="2.5" height="2.5"/>
		<rect x="168" y="161.1" class="st0" width="2.5" height="2.5"/>
		<rect x="168.2" y="157.9" class="st0" width="2.5" height="2.5"/>
		<rect x="168.4" y="154.8" class="st0" width="2.5" height="2.5"/>
		<rect x="168.4" y="97.5" class="st0" width="2.5" height="2.5"/>
		<rect x="168.5" y="100.7" class="st0" width="2.5" height="2.5"/>
		<rect x="168.4" y="94.3" class="st0" width="2.5" height="2.5"/>
		<rect x="168.6" y="126.2" class="st0" width="2.5" height="2.5"/>
		<rect x="168.3" y="91.1" class="st0" width="2.5" height="2.5"/>
		<rect x="171.9" y="145.2" class="st0" width="2.5" height="2.5"/>
		<rect x="168.5" y="103.9" class="st0" width="2.5" height="2.5"/>
		<rect x="168.2" y="87.9" class="st0" width="2.5" height="2.5"/>
		<rect x="168.6" y="119.8" class="st0" width="2.5" height="2.5"/>
		<rect x="168.1" y="83.2" class="st0" width="2.5" height="0.7"/>
		<rect x="168.6" y="116.7" class="st0" width="2.5" height="2.5"/>
		<rect x="168.6" y="123" class="st0" width="2.5" height="2.5"/>
		<rect x="168.6" y="113.5" class="st0" width="2.5" height="2.5"/>
		<rect x="168.6" y="110.3" class="st0" width="2.5" height="2.5"/>
		<rect x="168.1" y="84.6" class="st0" width="2.5" height="2.5"/>
		<rect x="171.9" y="116.7" class="st0" width="2.5" height="2.5"/>
		<rect x="171.9" y="97.6" class="st0" width="2.5" height="2.5"/>
		<rect x="171.9" y="113.5" class="st0" width="2.5" height="2.5"/>
		<rect x="171.9" y="104" class="st0" width="2.5" height="2.5"/>
		<rect x="171.9" y="107.1" class="st0" width="2.5" height="2.5"/>
		<rect x="171.9" y="100.8" class="st0" width="2.5" height="2.5"/>
		<rect x="171.9" y="123" class="st0" width="2.5" height="2.5"/>
		<rect x="171.9" y="119.8" class="st0" width="2.5" height="2.5"/>
		<rect x="171.9" y="138.9" class="st0" width="2.5" height="2.5"/>
		<rect x="171.9" y="135.7" class="st0" width="2.5" height="2.5"/>
		<rect x="171.9" y="142.1" class="st0" width="2.5" height="2.5"/>
		<rect x="171.9" y="129.4" class="st0" width="2.5" height="2.5"/>
		<rect x="171.9" y="126.2" class="st0" width="2.5" height="2.5"/>
		<rect x="171.9" y="132.5" class="st0" width="2.5" height="2.5"/>
		<rect x="164.5" y="177" class="st0" width="2.5" height="2.5"/>
		<rect x="150.9" y="199.2" class="st0" width="2.5" height="2.5"/>
		<rect x="155.7" y="192.9" class="st0" width="2.5" height="2.5"/>
		<rect x="153.4" y="196" class="st0" width="2.5" height="2.5"/>
		<rect x="157.9" y="189.7" class="st0" width="2.5" height="2.5"/>
		<rect x="163.2" y="180.1" class="st0" width="2.5" height="2.5"/>
		<rect x="161.7" y="183.3" class="st0" width="2.5" height="2.5"/>
		<rect x="171.8" y="94.4" class="st0" width="2.5" height="2.5"/>
		<rect x="159.9" y="186.5" class="st0" width="2.5" height="2.5"/>
		<rect x="146.1" y="205.5" class="st0" width="2.5" height="2.5"/>
		<rect x="171.8" y="91.2" class="st0" width="2.5" height="2.5"/>
		<rect x="171.7" y="84.8" class="st0" width="2.5" height="2.5"/>
		<rect x="171.8" y="88" class="st0" width="2.5" height="2.5"/>
		<rect x="148.5" y="202.4" class="st0" width="2.5" height="2.5"/>
		<rect x="171.7" y="83.3" class="st0" width="2.5" height="0.7"/>
		<rect x="171.9" y="110.3" class="st0" width="2.5" height="2.5"/>
		<rect x="205.4" y="97.6" class="st0" width="2.5" height="2.5"/>
		<rect x="152.1" y="109.9" class="st0" width="1.6" height="2.5"/>
		<rect x="152.9" y="208.7" class="st0" width="2.5" height="1"/>
		<rect x="160.5" y="208.7" class="st0" width="2.5" height="1"/>
		<rect x="205.4" y="91.3" class="st0" width="2.5" height="2.5"/>
		<rect x="205.4" y="94.4" class="st0" width="2.5" height="2.5"/>
		<rect x="205.4" y="100.8" class="st0" width="2.5" height="2.5"/>
		<rect x="175.2" y="83.4" class="st0" width="2.5" height="0.7"/>
		<rect x="91.1" y="208.7" class="st0" width="1.6" height="1"/>
		<rect x="101.6" y="208.7" class="st0" width="2.5" height="1"/>
		<rect x="144.4" y="208.7" class="st0" width="2.5" height="1"/>
		<rect x="151.7" y="106.5" class="st0" width="1.6" height="2.5"/>
		<rect x="113.6" y="208.7" class="st0" width="2.5" height="1"/>
		<rect x="135.1" y="208.7" class="st0" width="2.5" height="1"/>
		<rect x="124.8" y="208.7" class="st0" width="2.5" height="1"/>
		<rect x="205.4" y="88.1" class="st0" width="2.5" height="2.5"/>
		<rect x="198.7" y="97.6" class="st0" width="2.5" height="2.5"/>
		<rect x="198.7" y="100.8" class="st0" width="2.5" height="2.5"/>
		<rect x="202.1" y="83.5" class="st0" width="2.5" height="0.7"/>
		<rect x="198.7" y="88.1" class="st0" width="2.5" height="2.5"/>
		<rect x="198.7" y="94.4" class="st0" width="2.5" height="2.5"/>
		<rect x="202.1" y="84.9" class="st0" width="2.5" height="2.5"/>
		<rect x="198.7" y="91.3" class="st0" width="2.5" height="2.5"/>
		<rect x="202.1" y="94.4" class="st0" width="2.5" height="2.5"/>
		<rect x="202.1" y="97.6" class="st0" width="2.5" height="2.5"/>
		<rect x="202.1" y="100.8" class="st0" width="2.5" height="2.5"/>
		<rect x="205.4" y="83.5" class="st0" width="2.5" height="0.7"/>
		<rect x="205.4" y="84.9" class="st0" width="2.5" height="2.5"/>
		<rect x="202.1" y="88.1" class="st0" width="2.5" height="2.5"/>
		<rect x="202.1" y="91.3" class="st0" width="2.5" height="2.5"/>
		<rect x="152.7" y="135.7" class="st0" width="1.6" height="2.5"/>
		<rect x="145.7" y="173.8" class="st0" width="1.6" height="2.5"/>
		<rect x="143.4" y="177" class="st0" width="1.6" height="2.5"/>
		<rect x="140.5" y="180.1" class="st0" width="1.6" height="2.5"/>
		<rect x="147.6" y="170.6" class="st0" width="1.6" height="2.5"/>
		<rect x="150.2" y="164.3" class="st0" width="1.6" height="2.5"/>
		<rect x="96.6" y="205.5" class="st0" width="1.6" height="2.5"/>
		<rect x="149.1" y="167.5" class="st0" width="1.6" height="2.5"/>
		<rect x="151.1" y="161.1" class="st0" width="1.6" height="2.5"/>
		<rect x="110.7" y="199.2" class="st0" width="1.6" height="2.5"/>
		<rect x="133.1" y="186.5" class="st0" width="1.6" height="2.5"/>
		<rect x="152.3" y="113.2" class="st0" width="1.6" height="2.5"/>
		<rect x="103.8" y="202.4" class="st0" width="1.6" height="2.5"/>
		<rect x="128.5" y="189.7" class="st0" width="1.6" height="2.5"/>
		<rect x="123.2" y="192.9" class="st0" width="1.6" height="2.5"/>
		<rect x="117.2" y="196" class="st0" width="1.6" height="2.5"/>
		<rect x="152.7" y="129.4" class="st0" width="1.6" height="2.5"/>
		<rect x="152.7" y="132.5" class="st0" width="1.6" height="2.5"/>
		<rect x="152.7" y="126.2" class="st0" width="1.6" height="2.5"/>
		<rect x="152.6" y="119.7" class="st0" width="1.6" height="2.5"/>
		<rect x="152.6" y="123" class="st0" width="1.6" height="2.5"/>
		<rect x="152.5" y="116.5" class="st0" width="1.6" height="2.5"/>
		<rect x="198.7" y="84.9" class="st0" width="2.5" height="2.5"/>
		<rect x="152.6" y="148.4" class="st0" width="1.6" height="2.5"/>
		<rect x="152.7" y="138.9" class="st0" width="1.6" height="2.5"/>
		<rect x="152.1" y="154.8" class="st0" width="1.6" height="2.5"/>
		<rect x="151.7" y="157.9" class="st0" width="1.6" height="2.5"/>
		<rect x="152.4" y="151.6" class="st0" width="1.6" height="2.5"/>
		<rect x="152.7" y="142.1" class="st0" width="1.6" height="2.5"/>
		<rect x="152.7" y="145.2" class="st0" width="1.6" height="2.5"/>
		<rect x="137.1" y="183.3" class="st0" width="1.6" height="2.5"/>
		<rect x="178.6" y="88.1" class="st0" width="2.5" height="2.5"/>
		<rect x="198.7" y="83.5" class="st0" width="2.5" height="0.7"/>
		<rect x="178.6" y="94.4" class="st0" width="2.5" height="2.5"/>
		<rect x="178.6" y="83.5" class="st0" width="2.5" height="0.7"/>
		<rect x="178.6" y="84.9" class="st0" width="2.5" height="2.5"/>
		<rect x="178.6" y="104" class="st0" width="2.5" height="2.3"/>
		<rect x="178.6" y="100.8" class="st0" width="2.5" height="2.5"/>
		<rect x="178.6" y="97.6" class="st0" width="2.5" height="2.5"/>
		<rect x="182" y="104" class="st0" width="2.5" height="2.3"/>
		<rect x="182" y="94.4" class="st0" width="2.5" height="2.5"/>
		<rect x="182" y="88.1" class="st0" width="2.5" height="2.5"/>
		<rect x="182" y="91.3" class="st0" width="2.5" height="2.5"/>
		<rect x="182" y="100.8" class="st0" width="2.5" height="2.5"/>
		<rect x="182" y="84.9" class="st0" width="2.5" height="2.5"/>
		<rect x="182" y="83.5" class="st0" width="2.5" height="0.7"/>
		<rect x="208.8" y="97.6" class="st0" width="1.4" height="2.5"/>
		<rect x="185.3" y="104" class="st0" width="2.5" height="2.3"/>
		<rect x="208.8" y="94.4" class="st0" width="1.4" height="2.5"/>
		<rect x="208.8" y="100.8" class="st0" width="1.4" height="2.5"/>
		<rect x="208.8" y="91.3" class="st0" width="1.4" height="2.5"/>
		<rect x="208.8" y="84.9" class="st0" width="1.4" height="2.5"/>
		<rect x="208.8" y="88.1" class="st0" width="1.4" height="2.5"/>
		<rect x="208.8" y="104" class="st0" width="1.4" height="2.3"/>
		<rect x="192" y="104" class="st0" width="2.5" height="2.3"/>
		<rect x="205.4" y="104" class="st0" width="2.5" height="2.3"/>
		<rect x="188.7" y="104" class="st0" width="2.5" height="2.3"/>
		<rect x="195.4" y="104" class="st0" width="2.5" height="2.3"/>
		<rect x="202.1" y="104" class="st0" width="2.5" height="2.3"/>
		<rect x="198.7" y="104" class="st0" width="2.5" height="2.3"/>
		<rect x="178.6" y="91.3" class="st0" width="2.5" height="2.5"/>
		<rect x="192" y="94.4" class="st0" width="2.5" height="2.5"/>
		<rect x="192" y="100.8" class="st0" width="2.5" height="2.5"/>
		<rect x="192" y="97.6" class="st0" width="2.5" height="2.5"/>
		<rect x="192" y="88.1" class="st0" width="2.5" height="2.5"/>
		<rect x="192" y="84.9" class="st0" width="2.5" height="2.5"/>
		<rect x="192" y="91.3" class="st0" width="2.5" height="2.5"/>
		<rect x="195.4" y="83.5" class="st0" width="2.5" height="0.7"/>
		<rect x="195.4" y="88.1" class="st0" width="2.5" height="2.5"/>
		<rect x="195.4" y="100.8" class="st0" width="2.5" height="2.5"/>
		<rect x="195.4" y="94.4" class="st0" width="2.5" height="2.5"/>
		<rect x="195.4" y="84.9" class="st0" width="2.5" height="2.5"/>
		<rect x="195.4" y="97.6" class="st0" width="2.5" height="2.5"/>
		<rect x="192" y="83.5" class="st0" width="2.5" height="0.7"/>
		<rect x="195.4" y="91.3" class="st0" width="2.5" height="2.5"/>
		<rect x="188.7" y="91.3" class="st0" width="2.5" height="2.5"/>
		<rect x="185.3" y="94.4" class="st0" width="2.5" height="2.5"/>
		<rect x="185.3" y="91.3" class="st0" width="2.5" height="2.5"/>
		<rect x="185.3" y="100.8" class="st0" width="2.5" height="2.5"/>
		<rect x="185.3" y="83.5" class="st0" width="2.5" height="0.7"/>
		<rect x="185.3" y="97.6" class="st0" width="2.5" height="2.5"/>
		<rect x="185.3" y="88.1" class="st0" width="2.5" height="2.5"/>
		<rect x="185.3" y="84.9" class="st0" width="2.5" height="2.5"/>
		<rect x="188.7" y="100.8" class="st0" width="2.5" height="2.5"/>
		<rect x="188.7" y="94.4" class="st0" width="2.5" height="2.5"/>
		<rect x="182" y="97.6" class="st0" width="2.5" height="2.5"/>
		<rect x="188.7" y="83.5" class="st0" width="2.5" height="0.7"/>
		<rect x="188.7" y="97.6" class="st0" width="2.5" height="2.5"/>
		<rect x="188.7" y="84.9" class="st0" width="2.5" height="2.5"/>
		<rect x="188.7" y="88.1" class="st0" width="2.5" height="2.5"/>
		<rect x="114.3" y="91.8" class="st0" width="2.5" height="2.5"/>
		<rect x="151.2" y="81" class="st0" width="2.5" height="0.7"/>
		<rect x="154.7" y="110" class="st0" width="2.5" height="2.5"/>
		<rect x="152.1" y="86.1" class="st0" width="2.5" height="2.5"/>
		<rect x="151.6" y="82.6" class="st0" width="2.5" height="2.5"/>
		<rect x="147.3" y="85.2" class="st0" width="2.5" height="2.5"/>
		<rect x="148" y="88.8" class="st0" width="2.5" height="2.5"/>
		<rect x="148.7" y="92.5" class="st0" width="2.5" height="2.5"/>
		<rect x="149.9" y="99.6" class="st0" width="2.5" height="2.5"/>
		<rect x="154.2" y="103.4" class="st0" width="2.5" height="2.5"/>
		<rect x="152.6" y="89.6" class="st0" width="2.5" height="2.5"/>
		<rect x="153.9" y="100" class="st1" width="2.5" height="2.5"/>
		<rect x="154.5" y="106.7" class="st0" width="2.5" height="2.5"/>
		<rect x="153.1" y="93.1" class="st0" width="2.5" height="2.5"/>
		<polygon class="st0" points="150.4,105.3 151.3,105.3 151.3,105.5 152.8,105.5 152.8,103 150.4,103 		"/>
		<rect x="149.3" y="96" class="st0" width="2.5" height="2.5"/>
		<rect x="140" y="94.4" class="st0" width="2.5" height="2.5"/>
		<rect x="140.3" y="78.3" class="st0" width="2.5" height="0.7"/>
		<rect x="141.1" y="98.2" class="st0" width="2.5" height="2.5"/>
		<rect x="146.6" y="81.6" class="st0" width="2.5" height="2.5"/>
		<rect x="141" y="80.2" class="st0" width="2.5" height="2.5"/>
		<rect x="136.3" y="82.5" class="st0" width="2.5" height="2.5"/>
		<rect x="137.6" y="86.5" class="st0" width="2.5" height="2.5"/>
		<rect x="138.9" y="90.5" class="st0" width="2.5" height="2.5"/>
		<rect x="144.8" y="95.3" class="st0" width="2.5" height="2.5"/>
		<rect x="145.6" y="99" class="st0" width="2.5" height="2.5"/>
		<rect x="142" y="84" class="st0" width="2.5" height="2.5"/>
		<rect x="146.1" y="79.8" class="st0" width="2.5" height="0.7"/>
		<rect x="143" y="87.8" class="st0" width="2.5" height="2.5"/>
		<rect x="143.9" y="91.6" class="st0" width="2.5" height="2.5"/>
		<rect x="155" y="148.4" class="st0" width="2.5" height="2.5"/>
		<rect x="148.9" y="173.8" class="st0" width="2.5" height="2.5"/>
		<rect x="146.8" y="177" class="st0" width="2.5" height="2.5"/>
		<rect x="154.9" y="113.3" class="st0" width="2.5" height="2.5"/>
		<rect x="151.9" y="167.5" class="st0" width="2.5" height="2.5"/>
		<rect x="152.9" y="164.3" class="st0" width="2.5" height="2.5"/>
		<rect x="141.1" y="183.3" class="st0" width="2.5" height="2.5"/>
		<rect x="150.6" y="170.6" class="st0" width="2.5" height="2.5"/>
		<rect x="133.4" y="189.7" class="st0" width="2.5" height="2.5"/>
		<rect x="137.6" y="186.5" class="st0" width="2.5" height="2.5"/>
		<rect x="118" y="199.2" class="st0" width="2.5" height="2.5"/>
		<rect x="106.1" y="205.5" class="st0" width="2.5" height="2.5"/>
		<rect x="123.6" y="196" class="st0" width="2.5" height="2.5"/>
		<rect x="153.7" y="161.1" class="st0" width="2.5" height="2.5"/>
		<rect x="128.8" y="192.9" class="st0" width="2.5" height="2.5"/>
		<rect x="144.2" y="180.1" class="st0" width="2.5" height="2.5"/>
		<rect x="155.1" y="129.4" class="st0" width="2.5" height="2.5"/>
		<rect x="154.3" y="157.9" class="st0" width="2.5" height="2.5"/>
		<rect x="155.1" y="126.2" class="st0" width="2.5" height="2.5"/>
		<rect x="155" y="116.6" class="st0" width="2.5" height="2.5"/>
		<rect x="155.1" y="123" class="st0" width="2.5" height="2.5"/>
		<rect x="155.1" y="135.7" class="st0" width="2.5" height="2.5"/>
		<rect x="155.1" y="119.8" class="st0" width="2.5" height="2.5"/>
		<rect x="155.1" y="132.5" class="st0" width="2.5" height="2.5"/>
		<rect x="154.9" y="151.6" class="st0" width="2.5" height="2.5"/>
		<rect x="135" y="78.5" class="st0" width="2.5" height="2.5"/>
		<rect x="155.1" y="138.9" class="st0" width="2.5" height="2.5"/>
		<rect x="154.6" y="154.8" class="st0" width="2.5" height="2.5"/>
		<rect x="155.1" y="142.1" class="st0" width="2.5" height="2.5"/>
		<rect x="155.1" y="145.2" class="st0" width="2.5" height="2.5"/>
		<rect x="153.5" y="96.6" class="st0" width="2.5" height="2.5"/>
		<rect x="94.5" y="71.8" class="st0" width="2.5" height="2.5"/>
		<rect x="89" y="65.2" class="st0" width="2.5" height="2.5"/>
		<rect x="99.6" y="78.2" class="st0" width="2.5" height="2.5"/>
		<rect x="97.3" y="82.1" class="st0" width="2.5" height="2.5"/>
		<rect x="108.2" y="90.1" class="st0" width="2.5" height="2.5"/>
		<rect x="83.3" y="58.4" class="st0" width="2.5" height="2.5"/>
		<rect x="79.1" y="54.2" class="st0" width="2.5" height="0.7"/>
		<rect x="93.8" y="62.9" class="st0" width="2.5" height="2.5"/>
		<rect x="102.9" y="75.1" class="st0" width="2.5" height="2.5"/>
		<rect x="107.1" y="80.9" class="st0" width="2.5" height="2.5"/>
		<rect x="98.4" y="69" class="st0" width="2.5" height="2.5"/>
		<rect x="102.1" y="88.3" class="st0" width="2.5" height="2.5"/>
		<rect x="90.4" y="59.3" class="st0" width="2.5" height="0.7"/>
		<rect x="104.1" y="84.3" class="st0" width="2.5" height="2.5"/>
		<rect x="106.1" y="94" class="st0" width="2.5" height="2.3"/>
		<rect x="127.7" y="99.3" class="st0" width="2.5" height="2.3"/>
		<rect x="132.7" y="100.4" class="st0" width="2.5" height="2.3"/>
		<rect x="122.5" y="98.1" class="st0" width="2.5" height="2.3"/>
		<rect x="146.3" y="102.6" class="st0" width="2.5" height="2.3"/>
		<rect x="117.2" y="96.8" class="st0" width="2.5" height="2.3"/>
		<rect x="142" y="102" class="st0" width="2.5" height="2.3"/>
		<rect x="137.5" y="101.2" class="st0" width="2.5" height="2.3"/>
		<rect x="79.2" y="61.1" class="st0" width="2.5" height="2.5"/>
		<rect x="111.6" y="95.5" class="st0" width="2.5" height="2.3"/>
		<rect x="85.8" y="68.4" class="st0" width="2.5" height="2.5"/>
		<rect x="72.2" y="53.4" class="st0" width="2.5" height="2.5"/>
		<rect x="91.8" y="75.5" class="st0" width="2.5" height="2.5"/>
		<rect x="112.1" y="202.4" class="st0" width="2.5" height="2.5"/>
		<rect x="67" y="48.7" class="st0" width="2.5" height="0.7"/>
		<rect x="133.4" y="89.1" class="st0" width="2.5" height="2.5"/>
		<rect x="131.2" y="96.2" class="st0" width="2.5" height="2.5"/>
		<rect x="129.4" y="91.9" class="st0" width="2.5" height="2.5"/>
		<rect x="119.2" y="71.2" class="st0" width="2.5" height="0.7"/>
		<rect x="123.1" y="78.3" class="st0" width="2.5" height="2.5"/>
		<rect x="120.8" y="73.7" class="st0" width="2.5" height="2.5"/>
		<rect x="127" y="74.1" class="st0" width="2.5" height="0.7"/>
		<rect x="125.3" y="82.9" class="st0" width="2.5" height="2.5"/>
		<rect x="127.4" y="87.5" class="st0" width="2.5" height="2.5"/>
		<rect x="136.3" y="97.3" class="st0" width="2.5" height="2.5"/>
		<rect x="134" y="76.4" class="st0" width="2.5" height="0.7"/>
		<rect x="110.9" y="86.5" class="st0" width="2.5" height="2.5"/>
		<rect x="130" y="80.6" class="st0" width="2.5" height="2.5"/>
		<rect x="131.7" y="84.9" class="st0" width="2.5" height="2.5"/>
		<rect x="128.2" y="76.3" class="st0" width="2.5" height="2.5"/>
		<rect x="134.9" y="93.3" class="st0" width="2.5" height="2.5"/>
		<rect x="114.3" y="83.3" class="st0" width="2.5" height="2.5"/>
		<rect x="110.9" y="78" class="st0" width="2.5" height="2.5"/>
		<rect x="120.2" y="93.5" class="st0" width="2.5" height="2.5"/>
		<rect x="100.9" y="63.9" class="st0" width="2.5" height="0.7"/>
		<rect x="123.6" y="90.3" class="st0" width="2.5" height="2.5"/>
		<rect x="117.4" y="88.5" class="st0" width="2.5" height="2.5"/>
		<rect x="103.6" y="67" class="st0" width="2.5" height="2.5"/>
		<rect x="107.3" y="72.5" class="st0" width="2.5" height="2.5"/>
		<rect x="121.1" y="85.5" class="st0" width="2.5" height="2.5"/>
		<rect x="125.8" y="94.9" class="st0" width="2.5" height="2.5"/>
		<rect x="118.3" y="80.6" class="st0" width="2.5" height="2.5"/>
		<rect x="115.5" y="75.6" class="st0" width="2.5" height="2.5"/>
		<rect x="110.5" y="67.8" class="st0" width="2.5" height="0.7"/>
		<rect x="112.6" y="70.6" class="st0" width="2.5" height="2.5"/>
	</g>
</g>
<g>
	<g>
		<path class="st2" d="M155.3,101.6c0.5,0,0.5-0.8,0-0.8C154.8,100.9,154.8,101.6,155.3,101.6L155.3,101.6z"/>
	</g>
</g>
<path class="st3" d="M113.9,163.1"/>
<path class="st3" d="M106.9,163.1"/>
</svg>
