<?xml version="1.0" encoding="utf-8"?>
<!-- Generator: Adobe Illustrator 23.0.5, SVG Export Plug-In . SVG Version: 6.00 Build 0)  -->
<svg version="1.1" id="Design" xmlns="http://www.w3.org/2000/svg" xmlns:xlink="http://www.w3.org/1999/xlink" x="0px" y="0px"
	 viewBox="0 0 288 288" style="enable-background:new 0 0 288 288;" xml:space="preserve">
<style type="text/css">
	.st0{fill:#A3BEBF;}
	.st1{fill:#62F2FF;}
	.st2{fill:none;}
	.st3{fill:#A3BEC0;}
</style>
<g>
	<g>
		<rect x="60.7" y="227.6" class="st0" width="167.5" height="0.4"/>
	</g>
	<g>
		<rect x="164.4" y="84.4" class="st1" width="2.5" height="2.5"/>
		<rect x="131.4" y="202.4" class="st1" width="2.5" height="2.5"/>
		<rect x="164.3" y="82.9" class="st1" width="2.5" height="0.7"/>
		<rect x="139.1" y="196" class="st1" width="2.5" height="2.5"/>
		<rect x="135.3" y="199.2" class="st1" width="2.5" height="2.5"/>
		<rect x="127.6" y="205.5" class="st1" width="2.5" height="2.5"/>
		<rect x="161.8" y="145.2" class="st1" width="2.5" height="2.5"/>
		<rect x="165.1" y="103.9" class="st1" width="2.5" height="2.5"/>
		<rect x="164.5" y="87.7" class="st1" width="2.5" height="2.5"/>
		<rect x="165.1" y="107.1" class="st1" width="2.5" height="2.5"/>
		<rect x="165" y="100.7" class="st1" width="2.5" height="2.5"/>
		<rect x="164.7" y="90.9" class="st1" width="2.5" height="2.5"/>
		<rect x="142.7" y="192.9" class="st1" width="2.5" height="2.5"/>
		<rect x="164.9" y="97.4" class="st1" width="2.5" height="2.5"/>
		<rect x="158.6" y="170.6" class="st1" width="2.5" height="2.5"/>
		<rect x="160.9" y="161.1" class="st1" width="2.5" height="2.5"/>
		<rect x="161.3" y="157.9" class="st1" width="2.5" height="2.5"/>
		<rect x="160.3" y="164.3" class="st1" width="2.5" height="2.5"/>
		<rect x="159.6" y="167.5" class="st1" width="2.5" height="2.5"/>
		<rect x="161.8" y="148.4" class="st1" width="2.5" height="2.5"/>
		<rect x="161.7" y="151.6" class="st1" width="2.5" height="2.5"/>
		<rect x="161.5" y="154.8" class="st1" width="2.5" height="2.5"/>
		<rect x="155.7" y="177" class="st1" width="2.5" height="2.5"/>
		<rect x="151.6" y="183.3" class="st1" width="2.5" height="2.5"/>
		<rect x="165.2" y="110.3" class="st1" width="2.5" height="2.5"/>
		<rect x="149" y="186.5" class="st1" width="2.5" height="2.5"/>
		<rect x="153.8" y="180.1" class="st1" width="2.5" height="2.5"/>
		<rect x="157.3" y="173.8" class="st1" width="2.5" height="2.5"/>
		<rect x="146" y="189.7" class="st1" width="2.5" height="2.5"/>
		<rect x="164.8" y="94.2" class="st1" width="2.5" height="2.5"/>
		<rect x="161.5" y="173.8" class="st1" width="2.5" height="2.5"/>
		<rect x="160.2" y="177" class="st1" width="2.5" height="2.5"/>
		<rect x="165.2" y="113.5" class="st1" width="2.5" height="2.5"/>
		<rect x="156.7" y="183.3" class="st1" width="2.5" height="2.5"/>
		<rect x="162.5" y="170.6" class="st1" width="2.5" height="2.5"/>
		<rect x="164" y="164.3" class="st1" width="2.5" height="2.5"/>
		<rect x="163.4" y="167.5" class="st1" width="2.5" height="2.5"/>
		<rect x="152.1" y="189.7" class="st1" width="2.5" height="2.5"/>
		<rect x="146.4" y="196" class="st1" width="2.5" height="2.5"/>
		<rect x="143.4" y="199.2" class="st1" width="2.5" height="2.5"/>
		<rect x="154.5" y="186.5" class="st1" width="2.5" height="2.5"/>
		<rect x="137.2" y="205.5" class="st1" width="2.5" height="2.5"/>
		<rect x="164.4" y="161.1" class="st1" width="2.5" height="2.5"/>
		<rect x="149.4" y="192.9" class="st1" width="2.5" height="2.5"/>
		<rect x="158.6" y="180.1" class="st1" width="2.5" height="2.5"/>
		<rect x="165.2" y="126.2" class="st1" width="2.5" height="2.5"/>
		<rect x="165.2" y="135.7" class="st1" width="2.5" height="2.5"/>
		<rect x="165.2" y="132.5" class="st1" width="2.5" height="2.5"/>
		<rect x="165.2" y="129.4" class="st1" width="2.5" height="2.5"/>
		<rect x="165.2" y="116.7" class="st1" width="2.5" height="2.5"/>
		<rect x="165.2" y="119.8" class="st1" width="2.5" height="2.5"/>
		<rect x="165.2" y="123" class="st1" width="2.5" height="2.5"/>
		<rect x="164.8" y="157.9" class="st1" width="2.5" height="2.5"/>
		<rect x="165.1" y="151.6" class="st1" width="2.5" height="2.5"/>
		<rect x="165.2" y="148.4" class="st1" width="2.5" height="2.5"/>
		<rect x="165" y="154.8" class="st1" width="2.5" height="2.5"/>
		<rect x="165.2" y="145.2" class="st1" width="2.5" height="2.5"/>
		<rect x="165.2" y="142.1" class="st1" width="2.5" height="2.5"/>
		<rect x="165.2" y="138.9" class="st1" width="2.5" height="2.5"/>
		<rect x="161.9" y="142.1" class="st1" width="2.5" height="2.5"/>
		<rect x="158.3" y="151.6" class="st1" width="2.5" height="2.5"/>
		<rect x="158.5" y="145.2" class="st1" width="2.5" height="2.5"/>
		<rect x="158.4" y="148.4" class="st1" width="2.5" height="2.5"/>
		<rect x="158.5" y="142.1" class="st1" width="2.5" height="2.5"/>
		<rect x="158.5" y="132.5" class="st1" width="2.5" height="2.5"/>
		<rect x="158.5" y="138.9" class="st1" width="2.5" height="2.5"/>
		<rect x="158.5" y="135.7" class="st1" width="2.5" height="2.5"/>
		<rect x="155.7" y="167.5" class="st1" width="2.5" height="2.5"/>
		<rect x="158.5" y="129.4" class="st1" width="2.5" height="2.5"/>
		<rect x="156.6" y="164.3" class="st1" width="2.5" height="2.5"/>
		<rect x="158.1" y="154.8" class="st1" width="2.5" height="2.5"/>
		<rect x="154.6" y="170.6" class="st1" width="2.5" height="2.5"/>
		<rect x="157.8" y="157.9" class="st1" width="2.5" height="2.5"/>
		<rect x="153.1" y="173.8" class="st1" width="2.5" height="2.5"/>
		<rect x="157.3" y="161.1" class="st1" width="2.5" height="2.5"/>
		<rect x="157.2" y="93.6" class="st1" width="2.5" height="2.5"/>
		<rect x="158" y="103.6" class="st1" width="2.5" height="2.5"/>
		<rect x="157.7" y="100.3" class="st1" width="2.5" height="2.5"/>
		<rect x="153.7" y="100" class="st1" width="2.5" height="2.5"/>
		<rect x="140.3" y="202.4" class="st1" width="2.5" height="2.5"/>
		<rect x="156.2" y="83.4" class="st1" width="2.5" height="2.5"/>
		<rect x="156.9" y="90.2" class="st1" width="2.5" height="2.5"/>
		<rect x="156.5" y="86.8" class="st1" width="2.5" height="2.5"/>
		<rect x="157.5" y="97" class="st1" width="2.5" height="2.5"/>
		<rect x="158.4" y="116.6" class="st1" width="2.5" height="2.5"/>
		<rect x="158.5" y="119.8" class="st1" width="2.5" height="2.5"/>
		<rect x="158.1" y="106.9" class="st1" width="2.5" height="2.5"/>
		<rect x="158.5" y="123" class="st1" width="2.5" height="2.5"/>
		<rect x="158.3" y="110.2" class="st2" width="2.5" height="2.5"/>
		<rect x="158.4" y="113.4" class="st1" width="2.5" height="2.5"/>
		<rect x="158.5" y="126.2" class="st1" width="2.5" height="2.5"/>
		<rect x="161.8" y="113.5" class="st1" width="2.5" height="2.5"/>
		<rect x="161.8" y="116.6" class="st1" width="2.5" height="2.5"/>
		<rect x="161.8" y="110.2" class="st1" width="2.5" height="2.5"/>
		<rect x="158.1" y="110.2" class="st1" width="2.5" height="2.5"/>
		<rect x="161.7" y="107" class="st1" width="2.5" height="2.5"/>
		<rect x="161.9" y="119.8" class="st1" width="2.5" height="2.5"/>
		<rect x="161.4" y="100.5" class="st1" width="2.5" height="2.5"/>
		<rect x="161.6" y="103.8" class="st1" width="2.5" height="2.5"/>
		<rect x="161.3" y="97.2" class="st1" width="2.5" height="2.5"/>
		<rect x="161.9" y="123" class="st1" width="2.5" height="2.5"/>
		<rect x="161.9" y="138.9" class="st1" width="2.5" height="2.5"/>
		<rect x="161.9" y="132.5" class="st1" width="2.5" height="2.5"/>
		<rect x="161.9" y="135.7" class="st1" width="2.5" height="2.5"/>
		<rect x="161.9" y="126.2" class="st1" width="2.5" height="2.5"/>
		<rect x="161.9" y="129.4" class="st1" width="2.5" height="2.5"/>
		<rect x="122" y="202.4" class="st1" width="2.5" height="2.5"/>
		<rect x="126.8" y="199.2" class="st1" width="2.5" height="2.5"/>
		<rect x="139.8" y="189.7" class="st1" width="2.5" height="2.5"/>
		<rect x="131.4" y="196" class="st1" width="2.5" height="2.5"/>
		<rect x="135.8" y="192.9" class="st1" width="2.5" height="2.5"/>
		<rect x="149" y="180.1" class="st1" width="2.5" height="2.5"/>
		<rect x="146.4" y="183.3" class="st1" width="2.5" height="2.5"/>
		<rect x="143.3" y="186.5" class="st1" width="2.5" height="2.5"/>
		<rect x="160.2" y="82.5" class="st1" width="2.5" height="0.7"/>
		<rect x="160.4" y="84" class="st1" width="2.5" height="2.5"/>
		<rect x="160.6" y="87.3" class="st1" width="2.5" height="2.5"/>
		<rect x="160.9" y="90.6" class="st1" width="2.5" height="2.5"/>
		<rect x="161.1" y="93.9" class="st1" width="2.5" height="2.5"/>
		<rect x="151.3" y="177" class="st1" width="2.5" height="2.5"/>
		<rect x="117.2" y="205.5" class="st1" width="2.5" height="2.5"/>
		<rect x="175.3" y="113.5" class="st1" width="2.5" height="2.5"/>
		<rect x="175.3" y="94.4" class="st1" width="2.5" height="2.5"/>
		<rect x="175.2" y="88.1" class="st1" width="2.5" height="2.5"/>
		<rect x="175.2" y="91.2" class="st1" width="2.5" height="2.5"/>
		<rect x="175.2" y="84.9" class="st1" width="2.5" height="2.5"/>
		<rect x="159.9" y="196" class="st1" width="2.5" height="2.5"/>
		<rect x="157.9" y="199.2" class="st1" width="2.5" height="2.5"/>
		<rect x="154.2" y="205.5" class="st1" width="2.5" height="2.5"/>
		<rect x="156" y="202.4" class="st1" width="2.5" height="2.5"/>
		<rect x="175.3" y="110.3" class="st1" width="2.5" height="2.5"/>
		<rect x="175.3" y="97.6" class="st1" width="2.5" height="2.5"/>
		<rect x="155.9" y="81.8" class="st1" width="2.5" height="0.7"/>
		<rect x="175.3" y="107.1" class="st1" width="2.5" height="2.5"/>
		<rect x="175.3" y="104" class="st1" width="2.5" height="2.5"/>
		<rect x="175.3" y="116.7" class="st1" width="2.5" height="2.5"/>
		<rect x="175.3" y="100.8" class="st1" width="2.5" height="2.5"/>
		<rect x="171.5" y="161.1" class="st1" width="2.5" height="2.5"/>
		<rect x="171.2" y="164.3" class="st1" width="2.5" height="2.5"/>
		<rect x="170.8" y="167.5" class="st1" width="2.5" height="2.5"/>
		<rect x="171.7" y="157.9" class="st1" width="2.5" height="2.5"/>
		<rect x="170.3" y="170.6" class="st1" width="2.5" height="2.5"/>
		<rect x="171.9" y="151.6" class="st1" width="2.5" height="2.5"/>
		<rect x="171.8" y="154.8" class="st1" width="2.5" height="2.5"/>
		<rect x="166.5" y="183.3" class="st1" width="2.5" height="2.5"/>
		<rect x="169.6" y="173.8" class="st1" width="2.5" height="2.5"/>
		<rect x="165.1" y="186.5" class="st1" width="2.5" height="2.5"/>
		<rect x="163.5" y="189.7" class="st1" width="2.5" height="2.5"/>
		<rect x="161.7" y="192.9" class="st1" width="2.5" height="2.5"/>
		<rect x="167.7" y="180.1" class="st1" width="2.5" height="2.5"/>
		<rect x="168.8" y="177" class="st1" width="2.5" height="2.5"/>
		<rect x="172.1" y="180.1" class="st1" width="2.5" height="2.5"/>
		<rect x="171.1" y="183.3" class="st1" width="2.5" height="2.5"/>
		<rect x="171.9" y="148.4" class="st1" width="2.5" height="2.5"/>
		<rect x="168.7" y="189.7" class="st1" width="2.5" height="2.5"/>
		<rect x="170" y="186.5" class="st1" width="2.5" height="2.5"/>
		<rect x="172.9" y="177" class="st1" width="2.5" height="2.5"/>
		<rect x="174.1" y="170.6" class="st1" width="2.5" height="2.5"/>
		<rect x="175.3" y="119.8" class="st1" width="2.5" height="2.5"/>
		<rect x="174.5" y="167.5" class="st1" width="2.5" height="2.5"/>
		<rect x="161.5" y="205.5" class="st1" width="2.5" height="2.5"/>
		<rect x="162.9" y="202.4" class="st1" width="2.5" height="2.5"/>
		<rect x="167.4" y="192.9" class="st1" width="2.5" height="2.5"/>
		<rect x="208.8" y="83.5" class="st1" width="1.4" height="0.7"/>
		<rect x="165.9" y="196" class="st1" width="2.5" height="2.5"/>
		<rect x="164.4" y="199.2" class="st1" width="2.5" height="2.5"/>
		<rect x="173.6" y="173.8" class="st1" width="2.5" height="2.5"/>
		<rect x="175.3" y="142.1" class="st1" width="2.5" height="2.5"/>
		<rect x="175.3" y="135.7" class="st1" width="2.5" height="2.5"/>
		<rect x="175.3" y="138.9" class="st1" width="2.5" height="2.5"/>
		<rect x="175.3" y="132.5" class="st1" width="2.5" height="2.5"/>
		<rect x="175.3" y="129.4" class="st1" width="2.5" height="2.5"/>
		<rect x="175.3" y="123" class="st1" width="2.5" height="2.5"/>
		<rect x="175.3" y="126.2" class="st1" width="2.5" height="2.5"/>
		<rect x="175" y="161.1" class="st1" width="2.5" height="2.5"/>
		<rect x="175.1" y="157.9" class="st1" width="2.5" height="2.5"/>
		<rect x="174.8" y="164.3" class="st1" width="2.5" height="2.5"/>
		<rect x="175.3" y="145.2" class="st1" width="2.5" height="2.5"/>
		<rect x="175.2" y="154.8" class="st1" width="2.5" height="2.5"/>
		<rect x="175.3" y="151.6" class="st1" width="2.5" height="2.5"/>
		<rect x="175.3" y="148.4" class="st1" width="2.5" height="2.5"/>
		<rect x="168.5" y="107.1" class="st1" width="2.5" height="2.5"/>
		<rect x="168.6" y="142.1" class="st1" width="2.5" height="2.5"/>
		<rect x="168.6" y="145.2" class="st1" width="2.5" height="2.5"/>
		<rect x="168.5" y="148.4" class="st1" width="2.5" height="2.5"/>
		<rect x="168.6" y="135.7" class="st1" width="2.5" height="2.5"/>
		<rect x="168.6" y="132.5" class="st1" width="2.5" height="2.5"/>
		<rect x="168.6" y="138.9" class="st1" width="2.5" height="2.5"/>
		<rect x="168.6" y="129.4" class="st1" width="2.5" height="2.5"/>
		<rect x="168.5" y="151.6" class="st1" width="2.5" height="2.5"/>
		<rect x="165.6" y="173.8" class="st1" width="2.5" height="2.5"/>
		<rect x="167.1" y="167.5" class="st1" width="2.5" height="2.5"/>
		<rect x="166.4" y="170.6" class="st1" width="2.5" height="2.5"/>
		<rect x="167.6" y="164.3" class="st1" width="2.5" height="2.5"/>
		<rect x="168" y="161.1" class="st1" width="2.5" height="2.5"/>
		<rect x="168.2" y="157.9" class="st1" width="2.5" height="2.5"/>
		<rect x="168.4" y="154.8" class="st1" width="2.5" height="2.5"/>
		<rect x="168.4" y="97.5" class="st1" width="2.5" height="2.5"/>
		<rect x="168.5" y="100.7" class="st1" width="2.5" height="2.5"/>
		<rect x="168.4" y="94.3" class="st1" width="2.5" height="2.5"/>
		<rect x="168.6" y="126.2" class="st1" width="2.5" height="2.5"/>
		<rect x="168.3" y="91.1" class="st1" width="2.5" height="2.5"/>
		<rect x="171.9" y="145.2" class="st1" width="2.5" height="2.5"/>
		<rect x="168.5" y="103.9" class="st1" width="2.5" height="2.5"/>
		<rect x="168.2" y="87.9" class="st1" width="2.5" height="2.5"/>
		<rect x="168.6" y="119.8" class="st1" width="2.5" height="2.5"/>
		<rect x="168.1" y="83.2" class="st1" width="2.5" height="0.7"/>
		<rect x="168.6" y="116.7" class="st1" width="2.5" height="2.5"/>
		<rect x="168.6" y="123" class="st1" width="2.5" height="2.5"/>
		<rect x="168.6" y="113.5" class="st1" width="2.5" height="2.5"/>
		<rect x="168.6" y="110.3" class="st1" width="2.5" height="2.5"/>
		<rect x="168.1" y="84.6" class="st1" width="2.5" height="2.5"/>
		<rect x="171.9" y="116.7" class="st1" width="2.5" height="2.5"/>
		<rect x="171.9" y="97.6" class="st1" width="2.5" height="2.5"/>
		<rect x="171.9" y="113.5" class="st1" width="2.5" height="2.5"/>
		<rect x="171.9" y="104" class="st1" width="2.5" height="2.5"/>
		<rect x="171.9" y="107.1" class="st1" width="2.5" height="2.5"/>
		<rect x="171.9" y="100.8" class="st1" width="2.5" height="2.5"/>
		<rect x="171.9" y="123" class="st1" width="2.5" height="2.5"/>
		<rect x="171.9" y="119.8" class="st1" width="2.5" height="2.5"/>
		<rect x="171.9" y="138.9" class="st1" width="2.5" height="2.5"/>
		<rect x="171.9" y="135.7" class="st1" width="2.5" height="2.5"/>
		<rect x="171.9" y="142.1" class="st1" width="2.5" height="2.5"/>
		<rect x="171.9" y="129.4" class="st1" width="2.5" height="2.5"/>
		<rect x="171.9" y="126.2" class="st1" width="2.5" height="2.5"/>
		<rect x="171.9" y="132.5" class="st1" width="2.5" height="2.5"/>
		<rect x="164.5" y="177" class="st1" width="2.5" height="2.5"/>
		<rect x="150.9" y="199.2" class="st1" width="2.5" height="2.5"/>
		<rect x="155.7" y="192.9" class="st1" width="2.5" height="2.5"/>
		<rect x="153.4" y="196" class="st1" width="2.5" height="2.5"/>
		<rect x="157.9" y="189.7" class="st1" width="2.5" height="2.5"/>
		<rect x="163.2" y="180.1" class="st1" width="2.5" height="2.5"/>
		<rect x="161.7" y="183.3" class="st1" width="2.5" height="2.5"/>
		<rect x="171.8" y="94.4" class="st1" width="2.5" height="2.5"/>
		<rect x="159.9" y="186.5" class="st1" width="2.5" height="2.5"/>
		<rect x="146.1" y="205.5" class="st1" width="2.5" height="2.5"/>
		<rect x="171.8" y="91.2" class="st1" width="2.5" height="2.5"/>
		<rect x="171.7" y="84.8" class="st1" width="2.5" height="2.5"/>
		<rect x="171.8" y="88" class="st1" width="2.5" height="2.5"/>
		<rect x="148.5" y="202.4" class="st1" width="2.5" height="2.5"/>
		<rect x="171.7" y="83.3" class="st1" width="2.5" height="0.7"/>
		<rect x="171.9" y="110.3" class="st1" width="2.5" height="2.5"/>
		<rect x="205.4" y="97.6" class="st1" width="2.5" height="2.5"/>
		<rect x="152.1" y="109.9" class="st1" width="1.6" height="2.5"/>
		<rect x="152.9" y="208.7" class="st1" width="2.5" height="1"/>
		<rect x="160.5" y="208.7" class="st1" width="2.5" height="1"/>
		<rect x="205.4" y="91.3" class="st1" width="2.5" height="2.5"/>
		<rect x="205.4" y="94.4" class="st1" width="2.5" height="2.5"/>
		<rect x="205.4" y="100.8" class="st1" width="2.5" height="2.5"/>
		<rect x="175.2" y="83.4" class="st1" width="2.5" height="0.7"/>
		<rect x="91.1" y="208.7" class="st1" width="1.6" height="1"/>
		<rect x="101.6" y="208.7" class="st1" width="2.5" height="1"/>
		<rect x="144.4" y="208.7" class="st1" width="2.5" height="1"/>
		<rect x="151.7" y="106.5" class="st1" width="1.6" height="2.5"/>
		<rect x="113.6" y="208.7" class="st1" width="2.5" height="1"/>
		<rect x="135.1" y="208.7" class="st1" width="2.5" height="1"/>
		<rect x="124.8" y="208.7" class="st1" width="2.5" height="1"/>
		<rect x="205.4" y="88.1" class="st1" width="2.5" height="2.5"/>
		<rect x="198.7" y="97.6" class="st1" width="2.5" height="2.5"/>
		<rect x="198.7" y="100.8" class="st1" width="2.5" height="2.5"/>
		<rect x="202.1" y="83.5" class="st1" width="2.5" height="0.7"/>
		<rect x="198.7" y="88.1" class="st1" width="2.5" height="2.5"/>
		<rect x="198.7" y="94.4" class="st1" width="2.5" height="2.5"/>
		<rect x="202.1" y="84.9" class="st1" width="2.5" height="2.5"/>
		<rect x="198.7" y="91.3" class="st1" width="2.5" height="2.5"/>
		<rect x="202.1" y="94.4" class="st1" width="2.5" height="2.5"/>
		<rect x="202.1" y="97.6" class="st1" width="2.5" height="2.5"/>
		<rect x="202.1" y="100.8" class="st1" width="2.5" height="2.5"/>
		<rect x="205.4" y="83.5" class="st1" width="2.5" height="0.7"/>
		<rect x="205.4" y="84.9" class="st1" width="2.5" height="2.5"/>
		<rect x="202.1" y="88.1" class="st1" width="2.5" height="2.5"/>
		<rect x="202.1" y="91.3" class="st1" width="2.5" height="2.5"/>
		<rect x="152.7" y="135.7" class="st1" width="1.6" height="2.5"/>
		<rect x="145.7" y="173.8" class="st1" width="1.6" height="2.5"/>
		<rect x="143.4" y="177" class="st1" width="1.6" height="2.5"/>
		<rect x="140.5" y="180.1" class="st1" width="1.6" height="2.5"/>
		<rect x="147.6" y="170.6" class="st1" width="1.6" height="2.5"/>
		<rect x="150.2" y="164.3" class="st1" width="1.6" height="2.5"/>
		<rect x="96.6" y="205.5" class="st1" width="1.6" height="2.5"/>
		<rect x="149.1" y="167.5" class="st1" width="1.6" height="2.5"/>
		<rect x="151.1" y="161.1" class="st1" width="1.6" height="2.5"/>
		<rect x="110.7" y="199.2" class="st1" width="1.6" height="2.5"/>
		<rect x="133.1" y="186.5" class="st1" width="1.6" height="2.5"/>
		<rect x="152.3" y="113.2" class="st1" width="1.6" height="2.5"/>
		<rect x="103.8" y="202.4" class="st1" width="1.6" height="2.5"/>
		<rect x="128.5" y="189.7" class="st1" width="1.6" height="2.5"/>
		<rect x="123.2" y="192.9" class="st1" width="1.6" height="2.5"/>
		<rect x="117.2" y="196" class="st1" width="1.6" height="2.5"/>
		<rect x="152.7" y="129.4" class="st1" width="1.6" height="2.5"/>
		<rect x="152.7" y="132.5" class="st1" width="1.6" height="2.5"/>
		<rect x="152.7" y="126.2" class="st1" width="1.6" height="2.5"/>
		<rect x="152.6" y="119.7" class="st1" width="1.6" height="2.5"/>
		<rect x="152.6" y="123" class="st1" width="1.6" height="2.5"/>
		<rect x="152.5" y="116.5" class="st1" width="1.6" height="2.5"/>
		<rect x="198.7" y="84.9" class="st1" width="2.5" height="2.5"/>
		<rect x="152.6" y="148.4" class="st1" width="1.6" height="2.5"/>
		<rect x="152.7" y="138.9" class="st1" width="1.6" height="2.5"/>
		<rect x="152.1" y="154.8" class="st1" width="1.6" height="2.5"/>
		<rect x="151.7" y="157.9" class="st1" width="1.6" height="2.5"/>
		<rect x="152.4" y="151.6" class="st1" width="1.6" height="2.5"/>
		<rect x="152.7" y="142.1" class="st1" width="1.6" height="2.5"/>
		<rect x="152.7" y="145.2" class="st1" width="1.6" height="2.5"/>
		<rect x="137.1" y="183.3" class="st1" width="1.6" height="2.5"/>
		<rect x="178.6" y="88.1" class="st1" width="2.5" height="2.5"/>
		<rect x="198.7" y="83.5" class="st1" width="2.5" height="0.7"/>
		<rect x="178.6" y="94.4" class="st1" width="2.5" height="2.5"/>
		<rect x="178.6" y="83.5" class="st1" width="2.5" height="0.7"/>
		<rect x="178.6" y="84.9" class="st1" width="2.5" height="2.5"/>
		<rect x="178.6" y="104" class="st1" width="2.5" height="2.3"/>
		<rect x="178.6" y="100.8" class="st1" width="2.5" height="2.5"/>
		<rect x="178.6" y="97.6" class="st1" width="2.5" height="2.5"/>
		<rect x="182" y="104" class="st1" width="2.5" height="2.3"/>
		<rect x="182" y="94.4" class="st1" width="2.5" height="2.5"/>
		<rect x="182" y="88.1" class="st1" width="2.5" height="2.5"/>
		<rect x="182" y="91.3" class="st1" width="2.5" height="2.5"/>
		<rect x="182" y="100.8" class="st1" width="2.5" height="2.5"/>
		<rect x="182" y="84.9" class="st1" width="2.5" height="2.5"/>
		<rect x="182" y="83.5" class="st1" width="2.5" height="0.7"/>
		<rect x="208.8" y="97.6" class="st1" width="1.4" height="2.5"/>
		<rect x="185.3" y="104" class="st1" width="2.5" height="2.3"/>
		<rect x="208.8" y="94.4" class="st1" width="1.4" height="2.5"/>
		<rect x="208.8" y="100.8" class="st1" width="1.4" height="2.5"/>
		<rect x="208.8" y="91.3" class="st1" width="1.4" height="2.5"/>
		<rect x="208.8" y="84.9" class="st1" width="1.4" height="2.5"/>
		<rect x="208.8" y="88.1" class="st1" width="1.4" height="2.5"/>
		<rect x="208.8" y="104" class="st1" width="1.4" height="2.3"/>
		<rect x="192" y="104" class="st1" width="2.5" height="2.3"/>
		<rect x="205.4" y="104" class="st1" width="2.5" height="2.3"/>
		<rect x="188.7" y="104" class="st1" width="2.5" height="2.3"/>
		<rect x="195.4" y="104" class="st1" width="2.5" height="2.3"/>
		<rect x="202.1" y="104" class="st1" width="2.5" height="2.3"/>
		<rect x="198.7" y="104" class="st1" width="2.5" height="2.3"/>
		<rect x="178.6" y="91.3" class="st1" width="2.5" height="2.5"/>
		<rect x="192" y="94.4" class="st1" width="2.5" height="2.5"/>
		<rect x="192" y="100.8" class="st1" width="2.5" height="2.5"/>
		<rect x="192" y="97.6" class="st1" width="2.5" height="2.5"/>
		<rect x="192" y="88.1" class="st1" width="2.5" height="2.5"/>
		<rect x="192" y="84.9" class="st1" width="2.5" height="2.5"/>
		<rect x="192" y="91.3" class="st1" width="2.5" height="2.5"/>
		<rect x="195.4" y="83.5" class="st1" width="2.5" height="0.7"/>
		<rect x="195.4" y="88.1" class="st1" width="2.5" height="2.5"/>
		<rect x="195.4" y="100.8" class="st1" width="2.5" height="2.5"/>
		<rect x="195.4" y="94.4" class="st1" width="2.5" height="2.5"/>
		<rect x="195.4" y="84.9" class="st1" width="2.5" height="2.5"/>
		<rect x="195.4" y="97.6" class="st1" width="2.5" height="2.5"/>
		<rect x="192" y="83.5" class="st1" width="2.5" height="0.7"/>
		<rect x="195.4" y="91.3" class="st1" width="2.5" height="2.5"/>
		<rect x="188.7" y="91.3" class="st1" width="2.5" height="2.5"/>
		<rect x="185.3" y="94.4" class="st1" width="2.5" height="2.5"/>
		<rect x="185.3" y="91.3" class="st1" width="2.5" height="2.5"/>
		<rect x="185.3" y="100.8" class="st1" width="2.5" height="2.5"/>
		<rect x="185.3" y="83.5" class="st1" width="2.5" height="0.7"/>
		<rect x="185.3" y="97.6" class="st1" width="2.5" height="2.5"/>
		<rect x="185.3" y="88.1" class="st1" width="2.5" height="2.5"/>
		<rect x="185.3" y="84.9" class="st1" width="2.5" height="2.5"/>
		<rect x="188.7" y="100.8" class="st1" width="2.5" height="2.5"/>
		<rect x="188.7" y="94.4" class="st1" width="2.5" height="2.5"/>
		<rect x="182" y="97.6" class="st1" width="2.5" height="2.5"/>
		<rect x="188.7" y="83.5" class="st1" width="2.5" height="0.7"/>
		<rect x="188.7" y="97.6" class="st1" width="2.5" height="2.5"/>
		<rect x="188.7" y="84.9" class="st1" width="2.5" height="2.5"/>
		<rect x="188.7" y="88.1" class="st1" width="2.5" height="2.5"/>
		<rect x="114.3" y="91.8" class="st1" width="2.5" height="2.5"/>
		<rect x="151.2" y="81" class="st1" width="2.5" height="0.7"/>
		<rect x="154.7" y="110" class="st1" width="2.5" height="2.5"/>
		<rect x="152.1" y="86.1" class="st1" width="2.5" height="2.5"/>
		<rect x="151.6" y="82.6" class="st1" width="2.5" height="2.5"/>
		<rect x="147.3" y="85.2" class="st1" width="2.5" height="2.5"/>
		<rect x="148" y="88.8" class="st1" width="2.5" height="2.5"/>
		<rect x="148.7" y="92.5" class="st1" width="2.5" height="2.5"/>
		<rect x="149.9" y="99.6" class="st1" width="2.5" height="2.5"/>
		<rect x="154.2" y="103.4" class="st1" width="2.5" height="2.5"/>
		<rect x="152.6" y="89.6" class="st1" width="2.5" height="2.5"/>
		<rect x="153.9" y="100" class="st2" width="2.5" height="2.5"/>
		<rect x="154.5" y="106.7" class="st1" width="2.5" height="2.5"/>
		<rect x="153.1" y="93.1" class="st1" width="2.5" height="2.5"/>
		<polygon class="st1" points="150.4,105.3 151.3,105.3 151.3,105.5 152.8,105.5 152.8,103 150.4,103 		"/>
		<rect x="149.3" y="96" class="st1" width="2.5" height="2.5"/>
		<rect x="140" y="94.4" class="st1" width="2.5" height="2.5"/>
		<rect x="140.3" y="78.3" class="st1" width="2.5" height="0.7"/>
		<rect x="141.1" y="98.2" class="st1" width="2.5" height="2.5"/>
		<rect x="146.6" y="81.6" class="st1" width="2.5" height="2.5"/>
		<rect x="141" y="80.2" class="st1" width="2.5" height="2.5"/>
		<rect x="136.3" y="82.5" class="st1" width="2.5" height="2.5"/>
		<rect x="137.6" y="86.5" class="st1" width="2.5" height="2.5"/>
		<rect x="138.9" y="90.5" class="st1" width="2.5" height="2.5"/>
		<rect x="144.8" y="95.3" class="st1" width="2.5" height="2.5"/>
		<rect x="145.6" y="99" class="st1" width="2.5" height="2.5"/>
		<rect x="142" y="84" class="st1" width="2.5" height="2.5"/>
		<rect x="146.1" y="79.8" class="st1" width="2.5" height="0.7"/>
		<rect x="143" y="87.8" class="st1" width="2.5" height="2.5"/>
		<rect x="143.9" y="91.6" class="st1" width="2.5" height="2.5"/>
		<rect x="155" y="148.4" class="st1" width="2.5" height="2.5"/>
		<rect x="148.9" y="173.8" class="st1" width="2.5" height="2.5"/>
		<rect x="146.8" y="177" class="st1" width="2.5" height="2.5"/>
		<rect x="154.9" y="113.3" class="st1" width="2.5" height="2.5"/>
		<rect x="151.9" y="167.5" class="st1" width="2.5" height="2.5"/>
		<rect x="152.9" y="164.3" class="st1" width="2.5" height="2.5"/>
		<rect x="141.1" y="183.3" class="st1" width="2.5" height="2.5"/>
		<rect x="150.6" y="170.6" class="st1" width="2.5" height="2.5"/>
		<rect x="133.4" y="189.7" class="st1" width="2.5" height="2.5"/>
		<rect x="137.6" y="186.5" class="st1" width="2.5" height="2.5"/>
		<rect x="118" y="199.2" class="st1" width="2.5" height="2.5"/>
		<rect x="106.1" y="205.5" class="st1" width="2.5" height="2.5"/>
		<rect x="123.6" y="196" class="st1" width="2.5" height="2.5"/>
		<rect x="153.7" y="161.1" class="st1" width="2.5" height="2.5"/>
		<rect x="128.8" y="192.9" class="st1" width="2.5" height="2.5"/>
		<rect x="144.2" y="180.1" class="st1" width="2.5" height="2.5"/>
		<rect x="155.1" y="129.4" class="st1" width="2.5" height="2.5"/>
		<rect x="154.3" y="157.9" class="st1" width="2.5" height="2.5"/>
		<rect x="155.1" y="126.2" class="st1" width="2.5" height="2.5"/>
		<rect x="155" y="116.6" class="st1" width="2.5" height="2.5"/>
		<rect x="155.1" y="123" class="st1" width="2.5" height="2.5"/>
		<rect x="155.1" y="135.7" class="st1" width="2.5" height="2.5"/>
		<rect x="155.1" y="119.8" class="st1" width="2.5" height="2.5"/>
		<rect x="155.1" y="132.5" class="st1" width="2.5" height="2.5"/>
		<rect x="154.9" y="151.6" class="st1" width="2.5" height="2.5"/>
		<rect x="135" y="78.5" class="st1" width="2.5" height="2.5"/>
		<rect x="155.1" y="138.9" class="st1" width="2.5" height="2.5"/>
		<rect x="154.6" y="154.8" class="st1" width="2.5" height="2.5"/>
		<rect x="155.1" y="142.1" class="st1" width="2.5" height="2.5"/>
		<rect x="155.1" y="145.2" class="st1" width="2.5" height="2.5"/>
		<rect x="153.5" y="96.6" class="st1" width="2.5" height="2.5"/>
		<rect x="94.5" y="71.8" class="st1" width="2.5" height="2.5"/>
		<rect x="89" y="65.2" class="st1" width="2.5" height="2.5"/>
		<rect x="99.6" y="78.2" class="st1" width="2.5" height="2.5"/>
		<rect x="97.3" y="82.1" class="st1" width="2.5" height="2.5"/>
		<rect x="108.2" y="90.1" class="st1" width="2.5" height="2.5"/>
		<rect x="83.3" y="58.4" class="st1" width="2.5" height="2.5"/>
		<rect x="79.1" y="54.2" class="st1" width="2.5" height="0.7"/>
		<rect x="93.8" y="62.9" class="st1" width="2.5" height="2.5"/>
		<rect x="102.9" y="75.1" class="st1" width="2.5" height="2.5"/>
		<rect x="107.1" y="80.9" class="st1" width="2.5" height="2.5"/>
		<rect x="98.4" y="69" class="st1" width="2.5" height="2.5"/>
		<rect x="102.1" y="88.3" class="st1" width="2.5" height="2.5"/>
		<rect x="90.4" y="59.3" class="st1" width="2.5" height="0.7"/>
		<rect x="104.1" y="84.3" class="st1" width="2.5" height="2.5"/>
		<rect x="106.1" y="94" class="st1" width="2.5" height="2.3"/>
		<rect x="127.7" y="99.3" class="st1" width="2.5" height="2.3"/>
		<rect x="132.7" y="100.4" class="st1" width="2.5" height="2.3"/>
		<rect x="122.5" y="98.1" class="st1" width="2.5" height="2.3"/>
		<rect x="146.3" y="102.6" class="st1" width="2.5" height="2.3"/>
		<rect x="117.2" y="96.8" class="st1" width="2.5" height="2.3"/>
		<rect x="142" y="102" class="st1" width="2.5" height="2.3"/>
		<rect x="137.5" y="101.2" class="st1" width="2.5" height="2.3"/>
		<rect x="79.2" y="61.1" class="st1" width="2.5" height="2.5"/>
		<rect x="111.6" y="95.5" class="st1" width="2.5" height="2.3"/>
		<rect x="85.8" y="68.4" class="st1" width="2.5" height="2.5"/>
		<rect x="72.2" y="53.4" class="st1" width="2.5" height="2.5"/>
		<rect x="91.8" y="75.5" class="st1" width="2.5" height="2.5"/>
		<rect x="112.1" y="202.4" class="st1" width="2.5" height="2.5"/>
		<rect x="67" y="48.7" class="st1" width="2.5" height="0.7"/>
		<rect x="133.4" y="89.1" class="st1" width="2.5" height="2.5"/>
		<rect x="131.2" y="96.2" class="st1" width="2.5" height="2.5"/>
		<rect x="129.4" y="91.9" class="st1" width="2.5" height="2.5"/>
		<rect x="119.2" y="71.2" class="st1" width="2.5" height="0.7"/>
		<rect x="123.1" y="78.3" class="st1" width="2.5" height="2.5"/>
		<rect x="120.8" y="73.7" class="st1" width="2.5" height="2.5"/>
		<rect x="127" y="74.1" class="st1" width="2.5" height="0.7"/>
		<rect x="125.3" y="82.9" class="st1" width="2.5" height="2.5"/>
		<rect x="127.4" y="87.5" class="st1" width="2.5" height="2.5"/>
		<rect x="136.3" y="97.3" class="st1" width="2.5" height="2.5"/>
		<rect x="134" y="76.4" class="st1" width="2.5" height="0.7"/>
		<rect x="110.9" y="86.5" class="st1" width="2.5" height="2.5"/>
		<rect x="130" y="80.6" class="st1" width="2.5" height="2.5"/>
		<rect x="131.7" y="84.9" class="st1" width="2.5" height="2.5"/>
		<rect x="128.2" y="76.3" class="st1" width="2.5" height="2.5"/>
		<rect x="134.9" y="93.3" class="st1" width="2.5" height="2.5"/>
		<rect x="114.3" y="83.3" class="st1" width="2.5" height="2.5"/>
		<rect x="110.9" y="78" class="st1" width="2.5" height="2.5"/>
		<rect x="120.2" y="93.5" class="st1" width="2.5" height="2.5"/>
		<rect x="100.9" y="63.9" class="st1" width="2.5" height="0.7"/>
		<rect x="123.6" y="90.3" class="st1" width="2.5" height="2.5"/>
		<rect x="117.4" y="88.5" class="st1" width="2.5" height="2.5"/>
		<rect x="103.6" y="67" class="st1" width="2.5" height="2.5"/>
		<rect x="107.3" y="72.5" class="st1" width="2.5" height="2.5"/>
		<rect x="121.1" y="85.5" class="st1" width="2.5" height="2.5"/>
		<rect x="125.8" y="94.9" class="st1" width="2.5" height="2.5"/>
		<rect x="118.3" y="80.6" class="st1" width="2.5" height="2.5"/>
		<rect x="115.5" y="75.6" class="st1" width="2.5" height="2.5"/>
		<rect x="110.5" y="67.8" class="st1" width="2.5" height="0.7"/>
		<rect x="112.6" y="70.6" class="st1" width="2.5" height="2.5"/>
	</g>
</g>
<g>
	<path class="st1" d="M172.9,209.7l0.2-0.8h1.1l-0.2,0.8H172.9z M173.5,207.5l0.2-0.8h1.1l-0.2,0.8H173.5z M173.8,206.4l0.3-0.8h1.1
		l-0.2,0.8H173.8z M174.1,205.3l0.2-0.8h1.1l-0.2,0.8H174.1z M174.3,209.7l0.2-0.8h1.1l-0.2,0.8H174.3z M174.4,204.2l0.2-0.8h1.1
		l-0.3,0.8H174.4z M174.7,203.1l0.2-0.8h1.1l-0.2,0.8H174.7z M174.9,207.5l0.2-0.8h1.1l-0.2,0.8H174.9z M175,202.1l0.2-0.8h1.1
		l-0.2,0.8H175z M175.8,209.7l0.2-0.8h1.1l-0.2,0.8H175.8z M176.4,207.5l0.2-0.8h1.1l-0.2,0.8H176.4z M177.3,209.7l0.2-0.8h1.1
		l-0.2,0.8H177.3z M177.6,208.6l0.3-0.8h1.1l-0.2,0.8H177.6z M177.9,207.5l0.2-0.8h1.1l-0.2,0.8H177.9z M178.2,206.4l0.2-0.8h1.1
		l-0.3,0.8H178.2z M178.5,205.3l0.2-0.8h1.1l-0.2,0.8H178.5z M178.8,204.2l0.2-0.8h1.1l-0.2,0.8H178.8z M179.1,203.1l0.2-0.8h1.1
		l-0.3,0.8H179.1z M179.4,202.1l0.2-0.8h1.1l-0.2,0.8H179.4z"/>
	<path class="st1" d="M180.6,209.7l0.2-0.8h1.1l-0.2,0.8H180.6z M180.9,208.6l0.3-0.8h1.1l-0.2,0.8H180.9z M181.2,207.5l0.2-0.8h1.1
		l-0.2,0.8H181.2z M181.5,206.4l0.3-0.8h1.1l-0.2,0.8H181.5z M181.8,205.3l0.2-0.8h1.1l-0.2,0.8H181.8z M182.1,209.7l0.2-0.8h1.1
		l-0.2,0.8H182.1z M182.1,204.2l0.2-0.8h1.1l-0.3,0.8H182.1z M182.4,203.1l0.2-0.8h1.1l-0.2,0.8H182.4z M182.8,202.1l0.2-0.8h1.1
		l-0.2,0.8H182.8z M183.5,209.7l0.2-0.8h1.1l-0.2,0.8H183.5z M184.2,202.1l0.2-0.8h1.1l-0.2,0.8H184.2z M185,209.7l0.2-0.8h1.1
		l-0.2,0.8H185z M185.7,202.1l0.2-0.8h1.1l-0.3,0.8H185.7z M187.1,202.1l0.2-0.8h1.1l-0.2,0.8H187.1z"/>
	<path class="st1" d="M188.3,209.7l0.2-0.8h1.1l-0.2,0.8H188.3z M188.6,208.6l0.3-0.8h1.1l-0.2,0.8H188.6z M188.9,207.5l0.2-0.8h1.1
		l-0.2,0.8H188.9z M189.2,206.4l0.3-0.8h1.1l-0.2,0.8H189.2z M189.6,205.3l0.2-0.8h1.1l-0.2,0.8H189.6z M189.9,204.2l0.2-0.8h1.1
		l-0.3,0.8H189.9z M190.1,208.6l0.3-0.8h1.1l-0.2,0.8H190.1z M190.2,203.1l0.2-0.8h1.1l-0.2,0.8H190.2z M190.5,202.1l0.2-0.8h1.1
		l-0.2,0.8H190.5z M191.5,208.6l0.3-0.8h1.1l-0.2,0.8H191.5z M192.7,209.7l0.2-0.8h1.1l-0.2,0.8H192.7z M193,208.6l0.3-0.8h1.1
		l-0.2,0.8H193z M193.3,207.5l0.2-0.8h1.1l-0.2,0.8H193.3z M193.6,206.4l0.2-0.8h1.1l-0.3,0.8H193.6z M193.9,205.3l0.2-0.8h1.1
		l-0.2,0.8H193.9z M194.3,204.2l0.2-0.8h1.1l-0.2,0.8H194.3z M194.6,203.1l0.2-0.8h1.1l-0.3,0.8H194.6z M194.9,202.1l0.2-0.8h1.1
		l-0.2,0.8H194.9z"/>
	<path class="st1" d="M196,209.7l0.2-0.8h1.1l-0.2,0.8H196z M196.3,208.6l0.3-0.8h1.1l-0.2,0.8H196.3z M196.6,207.5l0.2-0.8h1.1
		l-0.2,0.8H196.6z M196.9,206.4l0.3-0.8h1.1l-0.2,0.8H196.9z M197.3,205.3l0.2-0.8h1.1l-0.2,0.8H197.3z M197.5,209.7l0.2-0.8h1.1
		l-0.2,0.8H197.5z M197.6,204.2l0.2-0.8h1.1l-0.3,0.8H197.6z M197.9,203.1l0.2-0.8h1.1l-0.2,0.8H197.9z M198.1,207.5l0.2-0.8h1.1
		l-0.2,0.8H198.1z M198.2,202.1l0.2-0.8h1.1l-0.2,0.8H198.2z M199,209.7l0.2-0.8h1.1l-0.2,0.8H199z M199.6,207.5l0.2-0.8h1.1
		l-0.2,0.8H199.6z M199.7,202.1l0.2-0.8h1.1l-0.2,0.8H199.7z M200.4,209.7l0.2-0.8h1.1l-0.2,0.8H200.4z M201,207.5l0.2-0.8h1.1
		l-0.2,0.8H201z M201.1,202.1l0.2-0.8h1.1l-0.3,0.8H201.1z M202.6,202.1l0.2-0.8h1.1l-0.2,0.8H202.6z"/>
</g>
<g>
	<path class="st0" d="M83.5,235.1h-2.4v4.6c0,0.1-0.1,0.1-0.2,0.1h-1.5c-0.1,0-0.2-0.1-0.2-0.1v-4.6h-3.5c-0.1,0-0.1-0.1-0.2-0.2
		v-1.2c0-0.1,0.1-0.1,0.2-0.2h7.7L83.5,235.1z"/>
	<path class="st0" d="M84.6,233.5h1.3c0.1,0,0.2,0.1,0.2,0.1v2.3h3.8v-2.3c0-0.1,0.1-0.1,0.2-0.1h1.3c0.1,0,0.2,0.1,0.2,0.1v6.1
		c0,0.1-0.1,0.1-0.2,0.1H90c-0.1,0-0.2-0.1-0.2-0.1v-2.3h-3.8v2.3c0,0.1-0.1,0.1-0.2,0.1h-1.3c-0.1,0-0.2-0.1-0.2-0.1v-6.1
		C84.5,233.5,84.5,233.5,84.6,233.5z"/>
	<path class="st0" d="M93.8,233.5h7c0.1,0,0.2,0.1,0.2,0.1v1.3c0,0.1-0.1,0.1-0.2,0.1h-7L93.8,233.5z M94,235.9h6.8
		c0.1,0,0.2,0.1,0.2,0.1v1.2c0,0.1-0.1,0.1-0.2,0.1h-5.2v0.9h5.3c0.1,0,0.2,0.1,0.2,0.1v1.3c0,0.1-0.1,0.1-0.2,0.1h-5.9
		c-0.7-0.1-1-0.4-1-0.9v-2.9C93.9,236,93.9,235.9,94,235.9z"/>
	<path class="st0" d="M107.5,233.5h5.6c1.4,0.1,2.1,0.6,2.1,1.6v1.1c0,0.7-0.4,1.2-1.3,1.5c-0.3,0.1-0.6,0.1-0.9,0.1
		c1.6,1.3,2.5,1.9,2.6,1.9v0.2h-1.9c-0.3,0-1-0.4-2.1-1.3c-1-0.7-1.5-1.2-1.5-1.5v-0.4c0-0.1,0.1-0.2,0.4-0.4h2.4
		c0.3,0,0.5-0.2,0.5-0.5v-0.2c0-0.3-0.1-0.4-0.3-0.5h-4.1v4.7c0,0.1-0.1,0.1-0.2,0.1h-1.5c-0.1,0-0.2-0.1-0.2-0.1v-6.1
		C107.4,233.5,107.4,233.5,107.5,233.5z"/>
	<path class="st0" d="M117.9,233.5h7c0.1,0,0.2,0.1,0.2,0.1v1.3c0,0.1-0.1,0.1-0.2,0.1h-7L117.9,233.5z M118.1,235.9h6.8
		c0.1,0,0.2,0.1,0.2,0.1v1.2c0,0.1-0.1,0.1-0.2,0.1h-5.2v0.9h5.3c0.1,0,0.2,0.1,0.2,0.1v1.3c0,0.1-0.1,0.1-0.2,0.1H119
		c-0.7-0.1-1-0.4-1-0.9v-2.9C118,236,118,235.9,118.1,235.9z"/>
	<path class="st0" d="M129.1,233.5l0.1,6.2c0,0.1-0.1,0.1-0.2,0.2h-1.5c-0.1,0-0.2-0.1-0.2-0.1v-6.2L129.1,233.5z"/>
	<path class="st0" d="M132.7,233.5h0.3c0.8,0,1.4,0.5,1.9,1.4c0.3,0.3,0.8,1,1.5,2h0.1c1.5-2,2.4-3.1,2.7-3.3
		c0.3-0.1,0.5-0.1,0.7-0.1h0.5c0.7,0,1,0.3,1,1v5.2c0,0.1-0.1,0.1-0.1,0.1h-1.5c0-2.7,0-4.2,0-4.4h-0.1c-0.1,0-0.8,1-2.2,2.9
		c-0.3,0.2-0.5,0.3-0.7,0.3h-0.5c-0.5,0-1.4-1.1-2.8-3.2h-0.1v4.2c0,0.1-0.1,0.1-0.1,0.1h-1.5c-0.1,0-0.1-0.1-0.1-0.1v-4.9
		C131.4,233.9,131.8,233.5,132.7,233.5z"/>
	<path class="st0" d="M148.9,236.2c0.5,0,0.7-0.2,0.7-0.6c-0.1-0.2-0.2-0.4-0.5-0.4h-5.4v-1.4l0.1-0.1c1.7,0,3,0,3.8,0h1.7
		c1,0,1.7,0.5,2,1.4c0.1,0.3,0.1,0.5,0.1,0.6c0.1,0.5-0.1,0.9-0.6,1.2v0.1c0.3,0,0.6,0.3,0.8,0.9v0.4c0,0.9-0.5,1.5-1.6,1.7h-2.7
		c-0.7,0-1.9,0-3.4,0l0-0.1v-3.5L148.9,236.2L148.9,236.2z M145.4,237.4v0.8h3.5c0.5,0,0.7-0.1,0.7-0.5c-0.1-0.2-0.2-0.3-0.5-0.3
		H145.4z"/>
	<path class="st0" d="M153.9,233.5h1.5c0.1,0,0.1,0.1,0.1,0.1v4.2c0,0.4,0.2,0.5,0.5,0.5h3.3c0.3,0,0.4-0.1,0.4-0.2v-4.5
		c0-0.1,0.1-0.1,0.1-0.1h1.5c0.1,0,0.1,0.1,0.1,0.1v4.5c0,0.9-0.6,1.5-1.8,1.7h-3.9c-1.4,0-2.2-0.7-2.2-2.2v-4.1
		C153.7,233.5,153.8,233.5,153.9,233.5z"/>
	<path class="st0" d="M163.9,233.5h5.6c1.4,0.1,2.1,0.6,2.1,1.6v1.1c0,0.7-0.4,1.2-1.3,1.5c-0.3,0.1-0.6,0.1-0.9,0.1
		c1.6,1.3,2.5,1.9,2.6,1.9v0.2h-1.9c-0.3,0-1-0.4-2.1-1.3c-1-0.7-1.5-1.2-1.5-1.5v-0.4c0-0.1,0.1-0.2,0.4-0.4h2.4
		c0.3,0,0.5-0.2,0.5-0.5v-0.2c0-0.3-0.1-0.4-0.3-0.5h-4.1v4.7c0,0.1-0.1,0.1-0.1,0.1h-1.5c-0.1,0-0.1-0.1-0.1-0.1v-6.1
		C163.8,233.5,163.8,233.5,163.9,233.5z"/>
	<path class="st0" d="M176.3,233.5h5.3c0.1,0,0.1,0.1,0.1,0.1v1.2c0,0.1-0.1,0.1-0.1,0.1h-5.4c-0.2,0.1-0.3,0.2-0.3,0.5v0.2
		c0,0.3,0.2,0.5,0.5,0.5h3.4c1.3,0.1,2,0.6,2,1.5v0.8c-0.2,1-0.8,1.5-2,1.5h-5.3c-0.1,0-0.1-0.1-0.1-0.1v-1.2c0-0.1,0.1-0.1,0.1-0.1
		h5.4c0.2-0.1,0.3-0.2,0.3-0.4c0-0.2-0.1-0.4-0.2-0.4s-0.3-0.1-0.5-0.1h-3.2c-1.2-0.1-1.8-0.6-1.8-1.5V235
		C174.5,234,175.2,233.5,176.3,233.5z"/>
	<path class="st0" d="M184.3,233.5h7c0.1,0,0.1,0.1,0.1,0.1v1.3c0,0.1-0.1,0.1-0.1,0.1h-7L184.3,233.5z M184.5,235.9h6.8
		c0.1,0,0.1,0.1,0.1,0.1v1.2c0,0.1-0.1,0.1-0.1,0.1H186v0.9h5.3c0.1,0,0.1,0.1,0.1,0.1v1.3c0,0.1-0.1,0.1-0.1,0.1h-5.9
		c-0.7-0.1-1-0.4-1-0.9v-2.9C184.3,236,184.4,235.9,184.5,235.9z"/>
	<path class="st0" d="M193.8,233.5h5.6c1.4,0.1,2.1,0.6,2.1,1.6v1.1c0,0.7-0.4,1.2-1.3,1.5c-0.3,0.1-0.6,0.1-0.9,0.1
		c1.6,1.3,2.5,1.9,2.6,1.9v0.2H200c-0.3,0-1-0.4-2.1-1.3c-1-0.7-1.5-1.2-1.5-1.5v-0.4c0-0.1,0.1-0.2,0.4-0.4h2.4
		c0.3,0,0.5-0.2,0.5-0.5v-0.2c0-0.3-0.1-0.4-0.3-0.5h-4.1v4.7c0,0.1-0.1,0.1-0.1,0.1h-1.5c-0.1,0-0.1-0.1-0.1-0.1v-6.1
		C193.7,233.5,193.7,233.5,193.8,233.5z"/>
</g>
<g>
	<g>
		<path class="st3" d="M155.3,101.6c0.5,0,0.5-0.8,0-0.8C154.8,100.9,154.8,101.6,155.3,101.6L155.3,101.6z"/>
	</g>
</g>
<path class="st0" d="M113.9,163.1"/>
<path class="st0" d="M106.9,163.1"/>
</svg>
